<svg width="45" height="47" viewBox="0 0 45 47" fill="none" xmlns="http://www.w3.org/2000/svg">
<path fill-rule="evenodd" clip-rule="evenodd" d="M44.8506 25.9407L40.6229 17.5508C40.4522 17.1928 40.1841 16.8892 39.8487 16.6741C39.5132 16.459 39.1238 16.3409 38.7244 16.3333H6.27598C5.8771 16.342 5.48855 16.4606 5.15371 16.6756C4.81886 16.8906 4.5509 17.1936 4.37982 17.5508L0.152182 25.9407C0.0435013 26.16 -0.00843918 26.4026 0.00111568 26.6468C0.0106705 26.8909 0.0813994 27.1287 0.206893 27.339C0.316046 27.5281 0.473328 27.6854 0.663061 27.7954C0.852795 27.9054 1.06831 27.9642 1.28811 27.9658H4.73376V44.8301C4.70767 45.3797 4.90288 45.9171 5.27649 46.324C5.6501 46.7309 6.1715 46.9741 6.72599 47H38.2792C38.8332 46.9735 39.3538 46.73 39.7267 46.3231C40.0996 45.9162 40.2942 45.3792 40.2678 44.8301V37.5974C40.2678 37.4184 40.196 37.2466 40.0683 37.12C39.9406 36.9934 39.7673 36.9223 39.5867 36.9223C39.406 36.9223 39.2328 36.9934 39.105 37.12C38.9773 37.2466 38.9056 37.4184 38.9056 37.5974V44.8301C38.923 45.0168 38.8679 45.2032 38.7515 45.351C38.6351 45.4989 38.4662 45.5972 38.2792 45.6259H23.1831V19.8893L26.7419 26.9655C26.8844 27.2598 27.1066 27.509 27.3836 27.6856C27.6605 27.8623 27.9815 27.9592 28.3108 27.9658H38.9056V34.3789C38.9056 34.558 38.9773 34.7297 39.105 34.8563C39.2328 34.9829 39.406 35.054 39.5867 35.054C39.7673 35.054 39.9406 34.9829 40.0683 34.8563C40.196 34.7297 40.2678 34.558 40.2678 34.3789V27.9658H43.711C43.9314 27.9648 44.1477 27.9063 44.3381 27.7963C44.5285 27.6863 44.6865 27.5286 44.7959 27.339C44.9197 27.1281 44.9893 26.8905 44.9989 26.6468C45.0084 26.403 44.9575 26.1605 44.8506 25.9407ZM1.36472 26.5917C1.36446 26.579 1.36783 26.5664 1.37445 26.5555L5.59488 18.1777C5.6534 18.0445 5.74803 17.9299 5.86828 17.8469C5.98853 17.7639 6.12967 17.7156 6.27598 17.7074H21.3854C20.8673 18.7441 17.7367 24.9403 17.035 26.3386C17.0075 26.4082 16.9609 26.4687 16.9005 26.5134C16.8401 26.5582 16.7683 26.5854 16.6932 26.5917H1.36843H1.36472ZM21.8184 45.6259H6.72599C6.53809 45.5986 6.36791 45.5009 6.25066 45.3528C6.13342 45.2047 6.07805 45.0175 6.09596 44.8301V27.9658H16.6932C17.022 27.9597 17.3425 27.863 17.6188 27.6862C17.8951 27.5095 18.1162 27.2599 18.2573 26.9655L21.8184 19.8893V45.6259ZM28.3108 26.5917C28.2346 26.586 28.1615 26.5591 28.0998 26.5143C28.0382 26.4696 27.9904 26.4089 27.9618 26.3386L23.6161 17.7074H38.7268C38.8725 17.7164 39.013 17.7651 39.1327 17.8481C39.2525 17.931 39.3468 18.0451 39.4055 18.1777L43.6283 26.5555C43.636 26.566 43.6394 26.5789 43.638 26.5917H28.3133H28.3108ZM22.4995 2.13299C22.1487 1.55633 21.6692 1.06697 21.0979 0.702395C20.5267 0.337821 19.8788 0.10759 19.2039 0.0296234C18.529 -0.0483434 17.8451 0.0281275 17.2046 0.252703C16.564 0.477279 15.9839 0.844212 15.5085 1.32543C14.6596 2.1801 14.1857 3.33249 14.1902 4.53183C14.1902 8.03971 16.5168 11.4149 20.5597 13.8258C20.6625 13.8924 20.7835 13.9261 20.9063 13.9224C21.0256 13.9227 21.1428 13.8916 21.246 13.8323C21.3492 13.773 21.4347 13.6876 21.4937 13.5848C21.5846 13.4255 21.6099 13.2377 21.5646 13.0604C21.5193 12.883 21.4068 12.7297 21.2505 12.6325C19.5368 11.6199 15.5548 8.78709 15.5499 4.53183C15.5443 4.08597 15.6355 3.64418 15.8174 3.23632C15.9992 2.82847 16.2674 2.46412 16.6037 2.16801C16.9401 1.8719 17.3368 1.65079 17.7669 1.51996C18.197 1.38913 18.6505 1.35149 19.0965 1.4096C19.6032 1.48957 20.0843 1.6848 20.5023 1.97966C20.9203 2.27452 21.2637 2.6612 21.5058 3.10948C21.6248 3.25947 21.7768 3.38037 21.9501 3.46323C22.1235 3.54609 22.3137 3.58859 22.5062 3.58742C22.6986 3.58626 22.8883 3.54141 23.0607 3.45646C23.233 3.37151 23.3834 3.24883 23.5005 3.09741C23.77 2.58642 24.1733 2.15671 24.6681 1.8534C25.1628 1.5501 25.7309 1.38418 26.3125 1.3734C27.1474 1.38231 27.9448 1.71809 28.5308 2.30751C29.1169 2.89693 29.444 3.69226 29.4407 4.51977C29.448 8.5701 25.8722 11.3426 23.7365 12.6325C23.5813 12.7308 23.4705 12.8849 23.4274 13.0624C23.3843 13.24 23.4123 13.4273 23.5054 13.5848C23.5503 13.6624 23.6107 13.7302 23.6828 13.7841C23.7549 13.8379 23.8372 13.8765 23.9248 13.898C24.0125 13.9194 24.1036 13.923 24.1927 13.9085C24.2818 13.8941 24.367 13.8618 24.4431 13.8138C28.5504 11.3305 30.8102 8.02764 30.8102 4.51977C30.8228 3.54634 30.5128 2.59569 29.9278 1.81367C29.3428 1.03166 28.5151 0.461553 27.5717 0.190606C26.6283 -0.0803416 25.6213 -0.0372538 24.705 0.313624C23.7888 0.664501 23.014 1.30371 22.4995 2.13299Z" fill="#1F1F1F"/>
</svg>
