<svg width="54" height="54" viewBox="0 0 54 54" fill="none" xmlns="http://www.w3.org/2000/svg">
<path fill-rule="evenodd" clip-rule="evenodd" d="M3.14615 30.1291C2.31784 30.1316 1.52227 29.8031 0.932856 29.2157C0.343443 28.6283 0.00802466 27.8294 0 26.9934V3.13551C0.00594103 2.29879 0.34073 1.49878 0.930597 0.910879C1.52046 0.322978 2.31721 -0.00456887 3.14615 4.81561e-05H26.9934C27.8224 -0.00456887 28.6193 0.322978 29.2092 0.910879C29.799 1.49878 30.1337 2.29879 30.1396 3.13551V21.0156C30.1396 21.1731 30.0776 21.3242 29.9673 21.4355C29.8569 21.5469 29.7074 21.6095 29.5514 21.6095C29.3954 21.6095 29.2457 21.5469 29.1354 21.4355C29.0251 21.3242 28.9631 21.1731 28.9631 21.0156V3.13551C28.9622 2.8753 28.9105 2.61785 28.8111 2.37779C28.7116 2.13772 28.5664 1.91974 28.3835 1.73636C28.2006 1.55298 27.9838 1.40805 27.7453 1.30929C27.5068 1.21052 27.2512 1.15986 26.9934 1.16074H3.14615C2.88836 1.15986 2.63301 1.21052 2.39451 1.30929C2.15601 1.40805 1.93904 1.55298 1.75615 1.73636C1.57325 1.91974 1.42798 2.13772 1.32853 2.37779C1.22907 2.61785 1.17739 2.8753 1.17652 3.13551V26.9934C1.18106 27.5168 1.39086 28.0171 1.76002 28.3847C2.12917 28.7523 2.62759 28.9573 3.14615 28.9548H21.0316C21.1859 28.9548 21.3339 29.0167 21.4429 29.1268C21.552 29.2369 21.6133 29.3861 21.6133 29.5418C21.6133 29.6975 21.552 29.847 21.4429 29.9571C21.3339 30.0672 21.1859 30.1291 21.0316 30.1291H3.14615ZM26.9934 53.9733C26.5837 53.9754 26.1775 53.8959 25.7982 53.7394C25.4189 53.5829 25.0739 53.3524 24.7829 53.0612C24.4919 52.7699 24.2607 52.4237 24.1024 52.0422C23.9442 51.6606 23.8619 51.2511 23.8605 50.8375V26.9934C23.8605 26.5787 23.9416 26.168 24.0992 25.7851C24.2568 25.4022 24.4879 25.0545 24.779 24.7619C25.0701 24.4693 25.4154 24.2375 25.7955 24.0801C26.1755 23.9226 26.5827 23.8425 26.9934 23.8442H40.6224C40.7767 23.8442 40.9245 23.9061 41.0336 24.0162C41.1427 24.1263 41.204 24.2758 41.204 24.4316C41.204 24.5873 41.1427 24.7365 41.0336 24.8466C40.9245 24.9567 40.7767 25.0186 40.6224 25.0186H26.9934C26.7357 25.0177 26.4803 25.068 26.2418 25.1668C26.0033 25.2656 25.7863 25.4108 25.6034 25.5942C25.4205 25.7776 25.2753 25.9956 25.1758 26.2356C25.0764 26.4757 25.0247 26.7331 25.0238 26.9934V50.8375C25.028 51.3623 25.2373 51.8642 25.6062 52.2341C25.975 52.6039 26.4736 52.8119 26.9934 52.8126H50.8407C51.3621 52.8127 51.8624 52.6053 52.2335 52.2357C52.6046 51.8661 52.8167 51.3637 52.8236 50.8375V26.9934C52.8187 26.4665 52.6073 25.9629 52.2358 25.5929C51.8642 25.2229 51.3627 25.0164 50.8407 25.0186H44.0329C43.8786 25.0186 43.7306 24.9567 43.6216 24.8466C43.5125 24.7365 43.4512 24.5873 43.4512 24.4316C43.4512 24.2758 43.5125 24.1263 43.6216 24.0162C43.7306 23.9061 43.8786 23.8442 44.0329 23.8442H50.8407C51.2522 23.8423 51.66 23.9225 52.0408 24.0797C52.4217 24.237 52.7682 24.4681 53.0603 24.7606C53.3525 25.053 53.5847 25.4007 53.7437 25.7838C53.9027 26.1669 53.9853 26.578 53.9869 26.9934V50.8375C53.981 51.6742 53.6463 52.4746 53.0565 53.0625C52.4666 53.6504 51.6697 53.9779 50.8407 53.9733H26.9934ZM20.1856 23.3106C20.0789 23.3127 19.9737 23.2849 19.8816 23.2305C18.1768 22.2089 16.6086 20.9713 15.2152 19.5477L15.0698 19.3878L14.9112 19.5477C13.5198 20.968 11.9564 22.2053 10.258 23.2305C10.1659 23.2849 10.0607 23.3127 9.95402 23.3106C9.85407 23.3085 9.75622 23.2819 9.66872 23.2331C9.58122 23.1843 9.50668 23.1147 9.45168 23.0305C9.41084 22.9657 9.38499 22.8926 9.37584 22.8164C9.36669 22.7402 9.37458 22.6627 9.39892 22.59C9.41446 22.5142 9.44605 22.4428 9.4917 22.3806C9.53736 22.3183 9.59592 22.2668 9.66324 22.2297C11.3078 21.2441 12.8149 20.0416 14.1445 18.6538L14.2767 18.5203L14.1578 18.3737C12.7171 16.6741 11.52 14.7786 10.6017 12.7429C10.5388 12.6013 10.5341 12.4401 10.5887 12.295C10.6432 12.1499 10.7525 12.0327 10.8927 11.9689C11.0347 11.9037 11.1965 11.8979 11.3427 11.9529C11.4889 12.0079 11.6075 12.1192 11.6726 12.2624C12.5163 14.1285 13.6008 15.874 14.8979 17.4531L15.0698 17.6397L15.2284 17.4531C17.0658 15.2449 18.4618 12.6982 19.3395 9.95404L19.4322 9.67388H7.40282C7.32731 9.67476 7.25234 9.66054 7.18223 9.63218C7.11213 9.60383 7.04825 9.56167 6.99424 9.50839C6.94023 9.45511 6.89711 9.39182 6.86741 9.32173C6.83771 9.25164 6.82196 9.17644 6.8211 9.10021C6.82248 8.94494 6.88417 8.7963 6.99295 8.6865C7.10173 8.57669 7.24899 8.51426 7.40282 8.51287H14.4882V7.39224C14.4882 7.23653 14.5494 7.087 14.6585 6.9769C14.7676 6.86679 14.9155 6.80489 15.0698 6.80489C15.2241 6.80489 15.372 6.86679 15.4811 6.9769C15.5902 7.087 15.6515 7.23653 15.6515 7.39224V8.51287H22.7369C22.8908 8.51426 23.0379 8.57669 23.1466 8.6865C23.2554 8.7963 23.3171 8.94494 23.3185 9.10021C23.3176 9.17644 23.3019 9.25164 23.2722 9.32173C23.2425 9.39182 23.1995 9.45511 23.1455 9.50839C23.0915 9.56167 23.0276 9.60383 22.9575 9.63218C22.8874 9.66054 22.8125 9.67476 22.7369 9.67388H20.6482L20.5955 9.83383C20.155 11.3775 19.5477 12.8676 18.7844 14.2772C17.9899 15.7348 17.051 17.1074 15.982 18.3737L15.8498 18.5203L15.9952 18.6538C17.3338 20.0371 18.8444 21.2391 20.4896 22.2297C20.6188 22.3114 20.7116 22.4404 20.7486 22.5897C20.7856 22.739 20.7638 22.897 20.6879 23.0305C20.6329 23.1147 20.5585 23.1843 20.471 23.2331C20.3835 23.2819 20.2855 23.3085 20.1856 23.3106ZM44.9714 47.1681C44.8529 47.1666 44.7377 47.1287 44.6409 47.0596C44.5441 46.9906 44.4704 46.8937 44.4295 46.7814L43.1471 43.4056H34.7001L33.4179 46.7948C33.3696 46.9035 33.292 46.9962 33.1938 47.0623C33.0955 47.1283 32.9808 47.165 32.8628 47.1681C32.7948 47.1678 32.7274 47.1545 32.6645 47.1284C32.5921 47.1017 32.5256 47.0607 32.4691 47.0079C32.4125 46.955 32.367 46.8913 32.335 46.8205C32.303 46.7498 32.2853 46.6732 32.2829 46.5954C32.2804 46.5177 32.2933 46.4404 32.3208 46.3677L38.0843 31.2498C38.1516 31.0758 38.269 30.9263 38.4214 30.8204C38.5737 30.7145 38.7541 30.6573 38.939 30.6559C39.124 30.6545 39.3052 30.7087 39.4591 30.8123C39.6131 30.9158 39.7329 31.0635 39.8028 31.2364L45.5266 46.3677C45.5775 46.5165 45.568 46.6794 45.5002 46.8212C45.455 46.9246 45.3809 47.0127 45.287 47.0743C45.1931 47.1359 45.0834 47.1684 44.9714 47.1681ZM35.1497 42.2312H42.711L38.9436 32.2639L35.1497 42.2312ZM17.6344 47.1681C17.5419 47.1692 17.4504 47.148 17.3677 47.1062C17.2849 47.0645 17.2132 47.0034 17.1585 46.928C17.1126 46.8681 17.0794 46.7992 17.0612 46.7257C17.043 46.6523 17.0401 46.5756 17.0527 46.501C17.0587 46.4235 17.0822 46.3488 17.1211 46.2817C17.16 46.2147 17.2134 46.1574 17.2774 46.1143L19.2735 44.6063H15.9158C14.1878 44.612 12.5283 43.9254 11.3014 42.697C10.0746 41.4687 9.38085 39.7991 9.37245 38.0549V32.9577C9.37245 32.8003 9.43431 32.6492 9.54463 32.5378C9.65495 32.4265 9.80462 32.3639 9.96063 32.3639C10.1166 32.3639 10.2663 32.4265 10.3766 32.5378C10.487 32.6492 10.549 32.8003 10.549 32.9577V38.0549C10.5532 39.4879 11.1208 40.8604 12.1271 41.8712C13.1335 42.882 14.4962 43.4485 15.9158 43.4456H19.2735L17.2774 41.9377C17.2152 41.8933 17.1626 41.8368 17.1227 41.7712C17.0828 41.7057 17.0564 41.6326 17.0452 41.5565C17.0341 41.4804 17.0385 41.4029 17.058 41.3285C17.0774 41.2541 17.1116 41.1846 17.1585 41.1239C17.2111 41.0464 17.2823 40.9835 17.3656 40.9415C17.4488 40.8995 17.5414 40.8795 17.6344 40.8835C17.7589 40.8847 17.8796 40.927 17.9781 41.0037L21.3886 43.5522C21.4596 43.6078 21.5177 43.6783 21.5588 43.759C21.5999 43.8397 21.6231 43.9287 21.6266 44.0193C21.626 44.1105 21.604 44.2004 21.5627 44.2815C21.5213 44.3627 21.4617 44.4326 21.3886 44.4861L17.9781 47.0482C17.8796 47.125 17.7589 47.167 17.6344 47.1681ZM44.0329 21.6026C43.9564 21.6032 43.8805 21.5883 43.8097 21.559C43.7389 21.5297 43.6745 21.4866 43.6204 21.4319C43.5663 21.3773 43.5234 21.3122 43.4944 21.2407C43.4654 21.1692 43.4506 21.0929 43.4512 21.0156V15.9184C43.4435 14.4854 42.8725 13.114 41.8636 12.1057C40.8548 11.0974 39.4907 10.5347 38.0711 10.5411H34.7134L36.7094 12.0357C36.7732 12.0803 36.8273 12.1375 36.8682 12.2041C36.9092 12.2706 36.9361 12.3452 36.9475 12.4227C36.9634 12.5751 36.9209 12.7277 36.8285 12.8494C36.7776 12.9254 36.7083 12.9873 36.6275 13.0292C36.5466 13.0712 36.4566 13.0922 36.3657 13.0898C36.2372 13.0889 36.1124 13.0467 36.009 12.9696L32.6116 10.4212C32.5406 10.3656 32.4824 10.2947 32.4413 10.214C32.4002 10.1333 32.3772 10.0447 32.3737 9.95404C32.3743 9.86281 32.3961 9.77292 32.4375 9.6918C32.4788 9.61067 32.5384 9.54045 32.6116 9.48689L36.009 6.9251C36.1124 6.84799 36.2372 6.80583 36.3657 6.80489C36.4561 6.80551 36.5452 6.82767 36.6255 6.86939C36.7059 6.91112 36.7755 6.97146 36.8285 7.04531C36.8754 7.10595 36.9096 7.17551 36.9291 7.24989C36.9485 7.32426 36.9528 7.40182 36.9417 7.47792C36.9305 7.55402 36.9043 7.62706 36.8644 7.6926C36.8245 7.75813 36.7717 7.81467 36.7094 7.85906L34.7134 9.36701H38.0711C39.7991 9.36134 41.4586 10.048 42.6855 11.2763C43.9123 12.5047 44.606 14.1742 44.6144 15.9184V21.0156C44.615 21.0929 44.6004 21.1692 44.5714 21.2407C44.5423 21.3122 44.4994 21.3773 44.4453 21.4319C44.3912 21.4866 44.3269 21.5297 44.2561 21.559C44.1852 21.5883 44.1094 21.6032 44.0329 21.6026Z" fill="black"/>
</svg>
