<svg width="55" height="36" viewBox="0 0 55 36" fill="none" xmlns="http://www.w3.org/2000/svg">
<path fill-rule="evenodd" clip-rule="evenodd" d="M27.5113 16.0581C25.9394 16.0676 24.4 15.6047 23.0884 14.7283C21.7768 13.8518 20.7519 12.6014 20.1438 11.1351C19.5357 9.66886 19.3718 8.053 19.6727 6.49236C19.9736 4.93171 20.7259 3.49637 21.8341 2.36867C22.9423 1.24097 24.3566 0.471533 25.8977 0.157817C27.4388 -0.155898 29.0373 0.000324845 30.4906 0.606594C31.9438 1.21286 33.1864 2.24179 34.0607 3.56319C34.9351 4.88459 35.4019 6.43907 35.4019 8.02911C35.4056 10.1514 34.577 12.1884 33.0978 13.6936C31.6186 15.1987 29.6095 16.0491 27.5113 16.0581ZM27.5113 1.09079C26.153 1.0828 24.8229 1.4828 23.6896 2.2403C22.5563 2.9978 21.671 4.07871 21.1457 5.34578C20.6204 6.61284 20.4788 8.00907 20.739 9.3576C20.9991 10.7061 21.6492 11.9463 22.6069 12.9206C23.5646 13.895 24.7868 14.5598 26.1185 14.8308C27.4502 15.1018 28.8314 14.9667 30.0871 14.4428C31.3429 13.9188 32.4165 13.0296 33.172 11.8878C33.9275 10.746 34.3309 9.40308 34.3309 8.02911C34.3318 6.1957 33.6148 4.43645 32.3369 3.13625C31.0589 1.83606 29.3239 1.1006 27.5113 1.09079ZM44.6719 21.0436C43.5891 21.0495 42.5291 20.73 41.626 20.1258C40.723 19.5216 40.0176 18.6598 39.5993 17.6497C39.1809 16.6396 39.0684 15.5266 39.2761 14.4518C39.4838 13.377 40.0023 12.3886 40.7659 11.6121C41.5294 10.8357 42.5037 10.3061 43.5652 10.0903C44.6267 9.87448 45.7277 9.9823 46.7285 10.4C47.7294 10.8178 48.5851 11.5265 49.1873 12.4367C49.7894 13.3469 50.1108 14.4175 50.1109 15.5126C50.1117 16.9749 49.5398 18.3778 48.5202 19.4144C47.5006 20.4511 46.1164 21.037 44.6708 21.0436H44.6719ZM44.6719 11.0725C43.8028 11.0682 42.952 11.325 42.2273 11.8103C41.5026 12.2955 40.9366 12.9876 40.601 13.7985C40.2655 14.6094 40.1755 15.5027 40.3424 16.3654C40.5093 17.2281 40.9257 18.0213 41.5387 18.6445C42.1517 19.2676 42.9338 19.6925 43.7859 19.8656C44.638 20.0387 45.5217 19.9523 46.3251 19.6169C47.1284 19.2815 47.8153 18.7122 48.2986 17.9816C48.7819 17.2509 49.0399 16.3917 49.0399 15.5126C49.0417 14.9308 48.9301 14.3542 48.7115 13.8161C48.4928 13.2779 48.1714 12.7886 47.7656 12.3763C47.3598 11.9639 46.8776 11.6366 46.3465 11.4129C45.8155 11.1892 45.246 11.0734 44.6708 11.0725H44.6719ZM10.5245 21.0436C9.44165 21.0499 8.3814 20.7308 7.47806 20.1269C6.57472 19.523 5.86896 18.6614 5.45028 17.6513C5.03161 16.6412 4.9189 15.5281 5.12634 14.4531C5.33379 13.3782 5.8521 12.3896 6.61558 11.6129C7.37905 10.8363 8.3533 10.3065 9.41486 10.0906C10.4764 9.87457 11.5775 9.9821 12.5785 10.3998C13.5795 10.8174 14.4353 11.5265 15.0376 12.4367C15.6398 13.3469 15.9613 14.4174 15.9614 15.5126C15.9625 16.9744 15.391 18.3771 14.3721 19.4137C13.3531 20.4502 11.9696 21.0364 10.5245 21.0436ZM10.5245 11.0725C9.65537 11.0682 8.80456 11.325 8.07986 11.8103C7.35516 12.2955 6.78919 12.9876 6.45364 13.7985C6.11809 14.6094 6.02807 15.5027 6.195 16.3654C6.36193 17.2281 6.77833 18.0213 7.39136 18.6445C8.0044 19.2676 8.78646 19.6925 9.63855 19.8656C10.4906 20.0387 11.3744 19.9523 12.1777 19.6169C12.9811 19.2815 13.6679 18.7122 14.1512 17.9816C14.6345 17.2509 14.8925 16.3917 14.8925 15.5126C14.8945 14.3382 14.4357 13.2111 13.6167 12.3786C12.7977 11.5462 11.6855 11.0763 10.5245 11.0725ZM54.479 36C54.3359 36 54.1987 35.9425 54.0976 35.8402C53.9965 35.7379 53.9397 35.5992 53.9397 35.4545C53.9434 32.963 52.9703 30.5718 51.2336 28.8049C49.4968 27.0381 47.1383 26.0399 44.6751 26.0292C43.4372 26.0283 42.2119 26.2806 41.0728 26.7709L40.3599 27.0764L40.7438 27.7636C42.0659 30.1062 42.7611 32.7571 42.7607 35.4545C42.7607 35.5992 42.7039 35.7379 42.6027 35.8402C42.5016 35.9425 42.3645 36 42.2215 36C42.0784 36 41.9412 35.9425 41.8401 35.8402C41.739 35.7379 41.6822 35.5992 41.6822 35.4545C41.6822 33.5722 41.3156 31.7084 40.6035 29.9694C39.8913 28.2303 38.8475 26.6501 37.5317 25.3191C36.2158 23.9881 34.6536 22.9324 32.9343 22.212C31.215 21.4917 29.3723 21.1211 27.5113 21.1211C25.6504 21.1211 23.8077 21.4917 22.0884 22.212C20.3691 22.9324 18.807 23.9881 17.4911 25.3191C16.1752 26.6501 15.1313 28.2303 14.4192 29.9694C13.707 31.7084 13.3405 33.5722 13.3405 35.4545C13.3405 35.5992 13.2837 35.7379 13.1825 35.8402C13.0814 35.9425 12.9443 36 12.8013 36C12.6582 36 12.5211 35.9425 12.4199 35.8402C12.3188 35.7379 12.262 35.5992 12.262 35.4545C12.2622 32.7577 12.9557 30.1073 14.2745 27.7636L14.6628 27.0764L13.9434 26.7709C12.246 26.0418 10.3715 25.8444 8.56212 26.2042C6.7527 26.5639 5.09158 27.4643 3.79339 28.7889C2.93008 29.6651 2.24596 30.7049 1.78016 31.8486C1.31436 32.9923 1.07598 34.2176 1.07869 35.4545C1.07869 35.5992 1.0219 35.7379 0.920769 35.8402C0.819637 35.9425 0.682448 36 0.539426 36C0.396404 36 0.259214 35.9425 0.158082 35.8402C0.0569503 35.7379 0.000160099 35.5992 0.000160099 35.4545C-0.00957609 33.6849 0.424905 31.9418 1.26288 30.3883C2.10085 28.8348 3.31488 27.5217 4.79134 26.5722C6.2678 25.6228 7.9584 25.0679 9.7047 24.9596C11.451 24.8512 13.1959 25.193 14.7761 25.9527L15.2711 26.1927L15.6119 25.7674C17.0315 23.9544 18.8382 22.4895 20.8966 21.4825C22.955 20.4756 25.2119 19.9524 27.4984 19.9524C29.7849 19.9524 32.0418 20.4756 34.1002 21.4825C36.1586 22.4895 37.9653 23.9544 39.3849 25.7674L39.7247 26.1927L40.2153 25.9527C41.7959 25.1922 43.5415 24.8498 45.2886 24.9577C47.0357 25.0657 48.727 25.6204 50.2043 26.5698C51.6817 27.5193 52.8966 28.8325 53.7353 30.3864C54.574 31.9403 55.0091 33.6842 54.9999 35.4545C54.9999 35.596 54.9457 35.732 54.8485 35.8338C54.7513 35.9356 54.6188 35.9952 54.479 36Z" fill="black"/>
</svg>
