<svg width="45" height="45" viewBox="0 0 45 45" fill="none" xmlns="http://www.w3.org/2000/svg">
<path fill-rule="evenodd" clip-rule="evenodd" d="M8.21723 43.2222C7.12478 43.2222 6.07702 42.788 5.30454 42.0152C4.53206 41.2423 4.09813 40.1941 4.09813 39.1011C4.09813 38.0081 4.53206 36.9601 5.30454 36.1873C6.07702 35.4144 7.12478 34.9802 8.21723 34.9802H18.9257C19.7275 34.9802 20.4963 34.6616 21.0633 34.0945C21.6302 33.5273 21.9487 32.7578 21.9487 31.9557C21.9487 31.1536 21.6302 30.3844 21.0633 29.8172C20.4963 29.25 19.7275 28.9314 18.9257 28.9314H11.7525L11.6729 29.1622C11.5489 29.5169 11.3412 29.8362 11.0674 30.0934C10.7937 30.3506 10.462 30.538 10.1004 30.6395C9.73885 30.7411 9.35814 30.7538 8.99061 30.6768C8.62308 30.5997 8.27961 30.4351 7.98927 30.1968C7.69893 29.9585 7.4703 29.6535 7.32286 29.3079C7.17542 28.9624 7.11354 28.5865 7.14236 28.2119C7.17119 27.8373 7.28992 27.4751 7.48849 27.1562C7.68707 26.8373 7.95962 26.5713 8.283 26.3803L8.58181 26.207L1.58509 14.7212C0.636563 13.2946 0.0925094 11.6373 0.0107889 9.92591C-0.0709317 8.21449 0.312793 6.51294 1.12107 5.00241C1.92936 3.49189 3.13194 2.22916 4.60081 1.34826C6.06967 0.467356 7.74983 0.00125564 9.46237 2.53454e-06C11.1749 -0.00125057 12.8558 0.462179 14.3259 1.34093C15.7961 2.21968 17.0005 3.48095 17.811 4.99029C18.6215 6.49963 19.0077 8.20057 18.9285 9.9121C18.8492 11.6236 18.3076 13.2817 17.3611 14.7096L10.3541 26.207L10.6552 26.3803C11.127 26.6566 11.4871 27.0893 11.6729 27.6037L11.7525 27.8348H18.9257C19.4666 27.8348 20.0022 27.9414 20.502 28.1485C21.0017 28.3556 21.4558 28.6589 21.8383 29.0416C22.2208 29.4243 22.5242 29.8786 22.7312 30.3786C22.9382 30.8786 23.0447 31.4145 23.0447 31.9557C23.0447 32.4969 22.9382 33.0328 22.7312 33.5328C22.5242 34.0328 22.2208 34.4871 21.8383 34.8698C21.4558 35.2524 21.0017 35.556 20.502 35.7631C20.0022 35.9702 19.4666 36.0768 18.9257 36.0768H8.2218C7.42006 36.0768 6.65118 36.3954 6.08426 36.9626C5.51734 37.5298 5.19884 38.299 5.19884 39.1011C5.19884 39.9032 5.51734 40.6727 6.08426 41.2399C6.65118 41.8071 7.42006 42.1256 8.2218 42.1256H17.1442C17.2887 42.1253 17.4274 42.1821 17.5301 42.2838C17.6328 42.3854 17.691 42.5236 17.6923 42.6682C17.6917 42.8139 17.6339 42.9537 17.5314 43.0574C17.4289 43.161 17.2899 43.2201 17.1442 43.2222H8.2218H8.21723ZM9.46329 27.1536C9.21921 27.1541 8.9808 27.2268 8.77807 27.3628C8.57535 27.4988 8.41743 27.6919 8.32434 27.9177C8.23125 28.1434 8.20715 28.3918 8.25504 28.6313C8.30294 28.8707 8.42075 29.0906 8.5935 29.2631C8.76625 29.4356 8.98619 29.553 9.22561 29.6005C9.46503 29.6479 9.71319 29.6233 9.93864 29.5297C10.1641 29.4362 10.3568 29.2779 10.4923 29.0749C10.6279 28.8718 10.7002 28.6331 10.7002 28.3889C10.6999 28.0612 10.5696 27.7468 10.3379 27.5152C10.1062 27.2836 9.79202 27.1536 9.46449 27.1536H9.46329ZM9.46329 1.08813C7.24436 1.08935 5.11657 1.97128 3.54679 3.5403C1.97701 5.10931 1.09352 7.23724 1.09016 9.45723C1.08566 11.1141 1.57709 12.7344 2.50122 14.1093C2.55314 14.2017 9.46329 25.5489 9.46329 25.5489L16.43 14.1093C17.3546 12.7346 17.8461 11.1142 17.8411 9.45723C17.8375 7.23674 16.9533 5.1085 15.3829 3.53945C13.8124 1.97041 11.6839 1.08874 9.46449 1.08813H9.46329ZM9.46329 13.5784C8.64856 13.5786 7.85208 13.3372 7.17455 12.8845C6.49701 12.4318 5.96888 11.7882 5.65694 11.0352C5.345 10.2822 5.26327 9.45351 5.42208 8.65403C5.58088 7.85455 5.9731 7.12017 6.54912 6.54372C7.12514 5.96726 7.85909 5.57467 8.65814 5.41557C9.4572 5.25646 10.2855 5.33789 11.0382 5.64977C11.791 5.96165 12.4343 6.48995 12.887 7.16768C13.3396 7.84541 13.5813 8.64212 13.5813 9.45723C13.58 10.5494 13.146 11.5965 12.3743 12.3691C11.6026 13.1416 10.5562 13.5765 9.46449 13.5784H9.46329ZM9.46329 6.44452C8.86639 6.44497 8.28308 6.62239 7.78709 6.95462C7.29109 7.28685 6.90471 7.7588 6.67687 8.31077C6.44903 8.86273 6.38993 9.46999 6.50708 10.0556C6.62423 10.6411 6.91234 11.1788 7.33497 11.6005C7.7576 12.0222 8.29579 12.3089 8.88138 12.4246C9.46698 12.5402 10.0737 12.4796 10.6248 12.2501C11.1759 12.0207 11.6466 11.6329 11.9773 11.1358C12.3081 10.6387 12.4839 10.0544 12.4828 9.45723C12.4816 8.65734 12.163 7.89074 11.597 7.32579C11.031 6.76083 10.264 6.4439 9.46449 6.44452H9.46329ZM35.5209 45C35.0409 44.999 34.5728 44.8498 34.1805 44.573C33.7882 44.2962 33.4907 43.9051 33.3287 43.453L33.2456 43.2222H25.1689C25.0235 43.2198 24.8849 43.1604 24.7829 43.0568C24.6808 42.9532 24.6235 42.8136 24.6232 42.6682C24.6238 42.5239 24.6816 42.3857 24.7839 42.284C24.8862 42.1823 25.0247 42.1253 25.1689 42.1256H33.2456L33.3287 41.8948C33.5063 41.3828 33.8584 40.9496 34.3232 40.6711L34.6244 40.4865L27.6438 29.5317C26.6933 28.1043 26.1479 26.4456 26.0655 24.7325C25.9831 23.0193 26.3669 21.3157 27.176 19.8036C27.9852 18.2915 29.1893 17.0276 30.66 16.1464C32.1307 15.2651 33.8129 14.7995 35.5273 14.7995C37.2416 14.7995 38.9237 15.2651 40.3945 16.1464C41.8652 17.0276 43.0693 18.2915 43.8785 19.8036C44.6876 21.3157 45.0714 23.0193 44.9891 24.7325C44.9067 26.4456 44.3611 28.1043 43.4106 29.5317L36.4301 40.4865L36.7312 40.6711C37.1679 40.9345 37.5063 41.3338 37.6944 41.808C37.8825 42.2822 37.9099 42.8051 37.7725 43.2964C37.6352 43.7876 37.3406 44.2202 36.9339 44.5279C36.5272 44.8357 36.0308 45.0016 35.5209 45ZM35.5209 41.4329C35.2768 41.4334 35.0384 41.5063 34.8356 41.6423C34.6329 41.7783 34.4751 41.9715 34.382 42.1972C34.2889 42.423 34.2647 42.6711 34.3126 42.9105C34.3605 43.15 34.4783 43.3699 34.6511 43.5424C34.8238 43.7149 35.0438 43.8323 35.2832 43.8797C35.5226 43.9272 35.7707 43.9025 35.9962 43.809C36.2217 43.7154 36.4143 43.5572 36.5499 43.3541C36.6854 43.1511 36.7578 42.9124 36.7578 42.6682C36.7578 42.5058 36.7258 42.345 36.6636 42.195C36.6014 42.045 36.5102 41.9087 36.3954 41.7939C36.2805 41.6792 36.1441 41.5884 35.9941 41.5265C35.844 41.4646 35.6832 41.4326 35.5209 41.4329ZM35.5209 15.8986C34.0043 15.8984 32.5161 16.3099 31.215 17.0896C29.9139 17.8694 28.8489 18.9879 28.1334 20.3258C27.418 21.6638 27.079 23.171 27.1527 24.6865C27.2264 26.2021 27.71 27.6693 28.5519 28.9314C28.583 28.9776 35.5209 39.8632 35.5209 39.8632C35.5209 39.8632 42.4599 28.9776 42.4922 28.9198C43.3311 27.6577 43.8121 26.1915 43.8841 24.6775C43.9561 23.1635 43.6163 21.6583 42.901 20.3222C42.1857 18.9861 41.1215 17.8692 39.8219 17.0902C38.5223 16.3112 37.0359 15.8994 35.5209 15.8986ZM35.5209 28.4004C34.7062 28.4007 33.9096 28.159 33.2321 27.7063C32.5546 27.2536 32.0264 26.6103 31.7145 25.8572C31.4026 25.1042 31.3208 24.2756 31.4796 23.4761C31.6384 22.6766 32.0307 21.942 32.6067 21.3655C33.1827 20.789 33.9166 20.3965 34.7157 20.2374C35.5148 20.0783 36.3431 20.16 37.0958 20.4718C37.8485 20.7837 38.4919 21.3117 38.9446 21.9895C39.3973 22.6672 39.6388 23.4642 39.6388 24.2793C39.6376 25.3717 39.2034 26.4189 38.4314 27.1914C37.6595 27.964 36.6128 28.3989 35.5209 28.4004ZM35.5209 21.2547C34.9229 21.2541 34.3381 21.431 33.8405 21.7629C33.3429 22.0948 32.9549 22.567 32.7256 23.1196C32.4962 23.6722 32.4359 24.2803 32.5521 24.8672C32.6684 25.4541 32.956 25.9934 33.3787 26.4167C33.8013 26.84 34.3399 27.1283 34.9264 27.2452C35.5129 27.3622 36.1209 27.3027 36.6735 27.0739C37.226 26.8451 37.6984 26.4573 38.0307 25.9598C38.363 25.4624 38.5404 24.8776 38.5404 24.2793C38.5398 23.478 38.2216 22.7095 37.6556 22.1425C37.0895 21.5755 36.3219 21.2563 35.5209 21.2547ZM21.1514 43.2222C21.006 43.2198 20.8674 43.1604 20.7653 43.0568C20.6632 42.9532 20.6059 42.8136 20.6057 42.6682C20.6121 42.5269 20.6728 42.3938 20.7749 42.2962C20.8771 42.1985 21.0129 42.144 21.1542 42.144C21.2955 42.144 21.4314 42.1985 21.5336 42.2962C21.6358 42.3938 21.6964 42.5269 21.7029 42.6682C21.702 42.8144 21.6437 42.9546 21.5405 43.0582C21.4373 43.1619 21.2976 43.2207 21.1514 43.2222Z" fill="black"/>
</svg>
