<svg width="56" height="55" viewBox="0 0 56 55" fill="none" xmlns="http://www.w3.org/2000/svg">
<path fill-rule="evenodd" clip-rule="evenodd" d="M27.8287 27.7089C27.1543 27.7058 26.5064 27.9682 26.0271 28.4383C25.5478 28.9084 25.2764 29.5476 25.2725 30.2159V33.9768C25.2725 34.6486 25.5419 35.293 26.0213 35.7681C26.5007 36.2432 27.1507 36.5099 27.8287 36.5099C28.5067 36.5099 29.1569 36.2432 29.6363 35.7681C30.1157 35.293 30.385 34.6486 30.385 33.9768V30.2159C30.3812 29.5476 30.1098 28.9084 29.6305 28.4383C29.1512 27.9682 28.5031 27.7058 27.8287 27.7089ZM29.1069 33.9768C29.1069 34.3127 28.9722 34.6347 28.7325 34.8723C28.4928 35.1098 28.1677 35.2433 27.8287 35.2433C27.4897 35.2433 27.1648 35.1098 26.9251 34.8723C26.6854 34.6347 26.5506 34.3127 26.5506 33.9768V30.2159C26.5506 29.88 26.6854 29.5579 26.9251 29.3204C27.1648 29.0829 27.4897 28.9493 27.8287 28.9493C28.1677 28.9493 28.4928 29.0829 28.7325 29.3204C28.9722 29.5579 29.1069 29.88 29.1069 30.2159V33.9768ZM34.8519 22.2508V15.2908C34.7068 13.542 33.9033 11.9113 32.601 10.7224C31.2987 9.53359 29.5929 8.87372 27.8223 8.87372C26.0516 8.87372 24.3457 9.53359 23.0434 10.7224C21.7411 11.9113 20.9376 13.542 20.7925 15.2908C20.7928 15.3741 20.81 15.4566 20.8427 15.5334C20.8754 15.6101 20.9232 15.6798 20.9833 15.7381C21.0433 15.7964 21.1144 15.8421 21.1925 15.8729C21.2706 15.9038 21.3541 15.9189 21.4381 15.9175C21.5215 15.9186 21.6043 15.9031 21.6815 15.872C21.7587 15.8408 21.8288 15.7949 21.8877 15.7365C21.9467 15.6781 21.9933 15.6083 22.0247 15.5318C22.0562 15.4553 22.0717 15.3734 22.0706 15.2908C22.2139 13.8778 22.8819 12.568 23.9446 11.6154C25.0073 10.6628 26.3893 10.1352 27.8223 10.1352C29.2553 10.1352 30.637 10.6628 31.6998 11.6154C32.7625 12.568 33.4305 13.8778 33.5738 15.2908V21.5325C33.4552 21.4672 33.3366 21.4151 33.218 21.3629C32.9676 21.2454 32.704 21.1409 32.4405 21.0365C32.2823 20.9712 32.1111 20.9188 31.9529 20.8535L31.4392 20.6969C31.1625 20.6186 30.8858 20.54 30.5959 20.4878C30.4641 20.4617 30.3587 20.4355 30.2269 20.4094C29.8843 20.3441 29.5549 20.292 29.2123 20.2529C29.1332 20.2529 29.0673 20.2398 28.9882 20.2398C28.6031 20.1985 28.2161 20.1767 27.8287 20.1744C25.3276 20.1964 22.8891 20.9514 20.8203 22.3445C18.7515 23.7376 17.1451 25.7064 16.2036 28.0028C15.262 30.2992 15.0274 32.8205 15.5293 35.2488C16.0313 37.677 17.2473 39.9038 19.0242 41.6483C20.801 43.3928 23.0592 44.5773 25.5141 45.0521C27.969 45.5269 30.5107 45.2708 32.8191 44.3163C35.1274 43.3619 37.0991 41.7517 38.4855 39.6886C39.872 37.6256 40.6112 35.202 40.61 32.7233C40.6059 30.6406 40.0772 28.5918 39.0716 26.763C38.0661 24.9342 36.6156 23.3832 34.8519 22.2508ZM27.8287 44.0182C24.8059 44.0182 21.9068 42.8283 19.7694 40.7101C17.6319 38.5918 16.4312 35.7189 16.4312 32.7233C16.4312 29.7276 17.6319 26.8547 19.7694 24.7364C21.9068 22.6182 24.8059 21.4279 27.8287 21.4279C28.1713 21.4279 28.5139 21.4541 28.8433 21.4802L29.1727 21.5194C29.4231 21.5456 29.6603 21.5848 29.8843 21.624C30.0556 21.6501 30.2137 21.6891 30.385 21.7152C30.5958 21.7674 30.8198 21.8198 31.0438 21.8851C31.2151 21.9373 31.3865 22.0025 31.5709 22.0547C31.6763 22.0939 31.7949 22.1332 31.9003 22.1723C32.5387 22.4179 33.1557 22.7147 33.7451 23.0602C35.9015 24.3216 37.5769 26.2536 38.5113 28.5559C39.4456 30.8582 39.5865 33.4019 38.9119 35.7917C38.2373 38.1815 36.785 40.2837 34.7808 41.7714C32.7766 43.259 30.3326 44.0488 27.8287 44.0182ZM47.633 0.913991H55.0777V8.22656H56V0H47.633V0.913991ZM0.935639 8.22656V0.913991H8.38038V0H0V8.22656H0.935639ZM55.0777 46.7605V54.0728H47.633V54.9871H56V46.7605H55.0777ZM8.38038 54.0728H0.935639V46.7605H0V54.9871H8.38038V54.0728Z" fill="black"/>
</svg>
