<svg width="58" height="56" viewBox="0 0 58 56" fill="none" xmlns="http://www.w3.org/2000/svg">
<path fill-rule="evenodd" clip-rule="evenodd" d="M51.1544 1.14676L54.4133 22.6818C56.4039 22.7561 58.0002 24.3676 58 26.3391C58 28.4473 56.1746 30.1451 53.9935 29.9901C52.1608 29.8598 50.6806 28.4057 50.5494 26.607C50.4191 24.8191 51.6061 23.2764 53.2528 22.8177L53.0197 20.9408L48.3499 26.7468C48.2658 26.8515 48.1374 26.9125 48.0015 26.9125L40.4143 26.9125C40.133 28.6597 38.5883 30 36.7302 30C34.5834 30 32.8543 28.211 33.0097 26.0722C33.1403 24.2751 34.6193 22.8204 36.4501 22.6885C38.4311 22.5456 40.1191 23.9315 40.4144 25.7657H40.7681L40.5576 24.8808C40.0864 22.9014 38.2881 21.5013 36.2169 21.5013H34.5369C34.2083 21.5013 33.9431 21.235 33.9529 20.9103C33.9626 20.5965 34.2416 20.3546 34.5615 20.3546H36.217C38.8449 20.3546 41.0977 22.1086 41.6956 24.62L41.9683 25.7656L47.6505 25.7657C47.6505 25.7657 52.788 19.3882 52.8236 19.3607L49.9772 1.14676H48.6597C48.3311 1.14676 48.0659 0.880444 48.0758 0.555735C48.0854 0.241965 48.3644 0 48.6843 0H52.2397C52.5683 0 52.8335 0.266312 52.8236 0.59102C52.814 0.90479 52.535 1.14676 52.2151 1.14676H51.1544ZM34.1687 26.339C34.1687 27.7254 35.3178 28.8532 36.7304 28.8532C37.9419 28.8532 38.9589 28.0233 39.224 26.9124H36.7304C36.4077 26.9124 36.1462 26.6557 36.1462 26.339C36.1462 26.0223 36.4077 25.7656 36.7304 25.7656H39.224C38.9589 24.6549 37.9419 23.825 36.7304 23.825C35.3178 23.825 34.1687 24.9528 34.1687 26.339ZM51.7084 26.3391C51.7084 27.7254 52.8575 28.8532 54.27 28.8532C55.6825 28.8532 56.8317 27.7254 56.8317 26.3391C56.8317 25.0482 55.835 23.9819 54.5573 23.8412L54.8425 26.1374C54.8816 26.4517 54.6535 26.7375 54.3332 26.7759C54.3092 26.7787 54.2854 26.7802 54.2619 26.7802C53.9707 26.7802 53.7187 26.5669 53.6826 26.2761L53.3969 23.9756C52.4131 24.3267 51.7084 25.2536 51.7084 26.3391ZM4.49626 51.6185C7.35332 54.4289 11.2172 55.9999 15.2401 55.9869C19.2645 56.001 23.1302 54.4307 25.9896 51.6204C28.849 48.8101 30.4686 44.989 30.4933 40.9953C30.4954 37.2874 29.0968 33.7134 26.5734 30.9789C24.0715 28.2414 20.6479 26.5052 16.9466 26.0965L15.8534 25.9773V20.0098H18.9067C20.0277 20.0098 21.1027 19.5679 21.8953 18.7812C22.688 17.9946 23.1333 16.9279 23.1333 15.8154C23.1333 14.703 22.688 13.6362 21.8953 12.8496C21.1027 12.063 20.0277 11.6211 18.9067 11.6211H11.5868C10.4658 11.6211 9.39064 12.063 8.59798 12.8496C7.80533 13.6362 7.36003 14.703 7.36003 15.8154C7.36003 16.9279 7.80533 17.9946 8.59798 18.7812C9.39064 19.5679 10.4658 20.0098 11.5868 20.0098H14.64V25.9773L13.5467 26.0965C9.84451 26.5022 6.42014 28.2389 3.92009 30.9789C1.39674 33.7134 -0.0020362 37.2874 2.22479e-06 40.9953C0.0222261 44.9875 1.63919 48.808 4.49626 51.6185ZM7.55794 29.5956C9.82508 28.0648 12.4981 27.2341 15.2401 27.208C18.9408 27.1961 22.4954 28.6406 25.1247 31.225C27.754 33.8095 29.2433 37.3229 29.2666 40.9953C29.2665 43.7166 28.4551 46.377 26.9342 48.6413C25.4134 50.9057 23.2513 52.6728 20.7204 53.7201C18.1895 54.7675 15.4029 55.0481 12.7116 54.5268C10.0203 54.0054 7.54458 52.7052 5.59636 50.7902C3.64814 48.8752 2.31439 46.4311 1.76335 43.7654C1.21231 41.0997 1.46854 38.3317 2.49968 35.8102C3.53081 33.2887 5.29081 31.1264 7.55794 29.5956ZM9.45117 13.6895C10.0175 13.1275 10.7858 12.8118 11.5868 12.8118H18.9067C19.7077 12.8118 20.4758 13.1275 21.0422 13.6895C21.6085 14.2516 21.9268 15.0141 21.9268 15.809C21.9268 16.6038 21.6085 17.3661 21.0422 17.9281C20.4758 18.4901 19.7077 18.8058 18.9067 18.8058H11.5868C10.7858 18.8058 10.0175 18.4901 9.45117 17.9281C8.88481 17.3661 8.56673 16.6038 8.56673 15.809C8.56673 15.0141 8.88481 14.2516 9.45117 13.6895ZM9.40007 36.0997L15 41.6039H20.7334V40.4H15.4933L10.2666 35.2394L9.40007 36.0997ZM32.3397 55.9452C32.414 55.9744 32.4935 55.9887 32.5734 55.9869C32.732 55.9852 32.8836 55.9218 32.9958 55.8105C33.1079 55.6992 33.1716 55.5486 33.1733 55.3912C33.1724 55.2324 33.1093 55.0803 32.9974 54.9668C32.8855 54.8532 32.7334 54.7871 32.5734 54.7826C32.4928 54.7824 32.4129 54.7983 32.3384 54.8288C32.2639 54.8593 32.1963 54.9041 32.1393 54.9606C32.0823 55.0172 32.0371 55.0844 32.0064 55.1583C31.9756 55.2322 31.9598 55.3112 31.96 55.3912C31.9599 55.4705 31.976 55.5491 32.007 55.6222C32.038 55.6953 32.0833 55.7618 32.1405 55.8173C32.1976 55.8728 32.2653 55.9161 32.3397 55.9452ZM39.4499 55.8144C39.5647 55.9259 39.7194 55.988 39.8801 55.9869C40.0407 55.988 40.1954 55.9259 40.3102 55.8144C40.4251 55.7029 40.4909 55.5507 40.4933 55.3912C40.4933 55.2298 40.4287 55.0751 40.3136 54.9609C40.1986 54.8468 40.0427 54.7826 39.8801 54.7826C39.7174 54.7826 39.5613 54.8468 39.4463 54.9609C39.3313 55.0751 39.2666 55.2298 39.2666 55.3912C39.2691 55.5507 39.335 55.7029 39.4499 55.8144ZM46.7699 55.8144C46.8847 55.9259 47.0393 55.988 47.2 55.9869C47.3607 55.988 47.5153 55.9259 47.6302 55.8144C47.7451 55.7029 47.8109 55.5507 47.8133 55.3912C47.8133 55.2298 47.7486 55.0751 47.6336 54.9609C47.5186 54.8468 47.3627 54.7826 47.2 54.7826C47.0374 54.7826 46.8813 54.8468 46.7663 54.9609C46.6513 55.0751 46.5868 55.2298 46.5868 55.3912C46.5892 55.5507 46.655 55.7029 46.7699 55.8144ZM46.7682 41.4237C46.8829 41.5374 47.0379 41.6022 47.2 41.6039C47.3622 41.6022 47.5172 41.5374 47.6318 41.4237C47.7465 41.3099 47.8116 41.1562 47.8133 40.9953C47.8133 40.8339 47.7486 40.6792 47.6336 40.565C47.5186 40.4509 47.3627 40.3867 47.2 40.3867C47.0374 40.3867 46.8813 40.4509 46.7663 40.565C46.6513 40.6792 46.5868 40.8339 46.5868 40.9953C46.5885 41.1562 46.6536 41.3099 46.7682 41.4237ZM46.8704 48.682C46.9673 48.749 47.082 48.786 47.2 48.7886C47.3607 48.7897 47.5153 48.728 47.6302 48.6165C47.7451 48.5049 47.8109 48.3527 47.8133 48.1933C47.8133 48.0761 47.7784 47.9617 47.7131 47.8641C47.6477 47.7665 47.5548 47.6902 47.446 47.6448C47.3371 47.5993 47.2171 47.5867 47.1011 47.6086C46.9851 47.6305 46.8782 47.6859 46.7938 47.7678C46.7094 47.8498 46.6511 47.9546 46.6265 48.0692C46.6018 48.1838 46.6119 48.3033 46.6553 48.4123C46.6986 48.5213 46.7735 48.615 46.8704 48.682ZM46.7682 34.2257C46.8829 34.3395 47.0379 34.4043 47.2 34.406C47.3622 34.4043 47.5172 34.3395 47.6318 34.2257C47.7465 34.112 47.8116 33.9583 47.8133 33.7974C47.8133 33.636 47.7486 33.4809 47.6336 33.3668C47.5186 33.2526 47.3627 33.1888 47.2 33.1888C47.0374 33.1888 46.8813 33.2526 46.7663 33.3668C46.6513 33.4809 46.5868 33.636 46.5868 33.7974C46.5885 33.9583 46.6536 34.112 46.7682 34.2257Z" fill="black"/>
</svg>
