<svg width="61" height="59" viewBox="0 0 61 59" fill="none" xmlns="http://www.w3.org/2000/svg">
<path fill-rule="evenodd" clip-rule="evenodd" d="M15.2401 58.9869C11.2172 58.9999 7.35332 57.4289 4.49626 54.6184C1.63919 51.8079 0.0222261 47.9874 2.22479e-06 43.9953C-0.0020362 40.2874 1.39674 36.7134 3.92009 33.9788C6.42014 31.2389 9.84451 29.5021 13.5467 29.0964L14.64 28.9772V23.0097H11.5868C10.4658 23.0097 9.39064 22.5678 8.59798 21.7812C7.80533 20.9946 7.36003 19.9278 7.36003 18.8154C7.36003 17.703 7.80533 16.6362 8.59798 15.8496C9.39064 15.063 10.4658 14.6211 11.5868 14.6211H18.9067C20.0277 14.6211 21.1027 15.063 21.8953 15.8496C22.688 16.6362 23.1333 17.703 23.1333 18.8154C23.1333 19.9278 22.688 20.9946 21.8953 21.7812C21.1027 22.5678 20.0277 23.0097 18.9067 23.0097H15.8534V28.9772L16.9466 29.0964C20.6479 29.5051 24.0715 31.2413 26.5734 33.9788C29.0968 36.7134 30.4954 40.2874 30.4933 43.9953C30.4686 47.989 28.849 51.81 25.9896 54.6204C23.1302 57.4307 19.2645 59.001 15.2401 58.9869ZM15.2401 30.208C12.4981 30.2341 9.82508 31.0648 7.55794 32.5956C5.29081 34.1263 3.53081 36.2887 2.49968 38.8102C1.46854 41.3317 1.21231 44.0996 1.76335 46.7653C2.31439 49.4311 3.64814 51.8752 5.59636 53.7901C7.54458 55.7051 10.0203 57.0054 12.7116 57.5267C15.4029 58.0481 18.1895 57.7674 20.7204 56.7201C23.2513 55.6728 25.4134 53.9057 26.9342 51.6413C28.4551 49.3769 29.2665 46.7165 29.2666 43.9953C29.2433 40.3228 27.754 36.8094 25.1247 34.225C22.4954 31.6405 18.9408 30.196 15.2401 30.208ZM11.5868 15.8118C10.7858 15.8118 10.0175 16.1274 9.45117 16.6895C8.88481 17.2515 8.56673 18.0141 8.56673 18.8089C8.56673 19.6038 8.88481 20.366 9.45117 20.9281C10.0175 21.4901 10.7858 21.8058 11.5868 21.8058H18.9067C19.7077 21.8058 20.4758 21.4901 21.0422 20.9281C21.6085 20.366 21.9268 19.6038 21.9268 18.8089C21.9268 18.0141 21.6085 17.2515 21.0422 16.6895C20.4758 16.1274 19.7077 15.8118 18.9067 15.8118H11.5868ZM15 44.6039L9.40007 39.0996L10.2666 38.2394L15.4933 43.3999H20.7334V44.6039H15ZM38.1467 21.475C36.9588 20.3122 36.0155 18.9267 35.3717 17.3992C34.728 15.8716 34.3965 14.2323 34.3965 12.5765C34.3965 10.9208 34.728 9.28178 35.3717 7.75422C36.0155 6.22667 36.9588 4.84119 38.1467 3.67844C40.5613 1.3211 43.8128 0 47.2 0C50.5872 0 53.8388 1.3211 56.2534 3.67844C57.4413 4.84119 58.3844 6.22667 59.0282 7.75422C59.672 9.28178 60.0036 10.9208 60.0036 12.5765C60.0036 14.2323 59.672 15.8716 59.0282 17.3992C58.3844 18.9267 57.4413 20.3122 56.2534 21.475L47.2 30.3799L38.1467 21.475ZM47.2 1.19072C45.6814 1.18391 44.1763 1.4752 42.7713 2.04742C41.3664 2.61964 40.0893 3.46155 39.0134 4.52513C37.9395 5.57776 37.0868 6.83147 36.5049 8.21358C35.923 9.59569 35.6234 11.0786 35.6234 12.5765C35.6234 14.0744 35.923 15.5577 36.5049 16.9398C37.0868 18.3219 37.9395 19.5756 39.0134 20.6283L47.2 28.6862L55.3867 20.6283C56.4635 19.5773 57.3186 18.3241 57.9023 16.9418C58.4861 15.5594 58.7868 14.0754 58.7868 12.5765C58.7868 11.0777 58.4861 9.59397 57.9023 8.21164C57.3186 6.82931 56.4635 5.57612 55.3867 4.52513C54.3115 3.46054 53.0345 2.61777 51.6294 2.04548C50.2243 1.47319 48.7189 1.18268 47.2 1.19072ZM47.2 16.7777C46.3639 16.7711 45.5485 16.5193 44.8566 16.0534C44.1647 15.5875 43.6273 14.9287 43.3122 14.1601C42.9971 13.3915 42.9183 12.5476 43.0859 11.7347C43.2536 10.9218 43.6601 10.1763 44.2541 9.59231C44.8481 9.00835 45.603 8.61197 46.4237 8.45328C47.2444 8.29459 48.0941 8.38079 48.8656 8.70072C49.637 9.02065 50.2959 9.56 50.7588 10.251C51.2217 10.942 51.4679 11.7536 51.4666 12.5833C51.4642 13.1368 51.3518 13.6843 51.1361 14.1946C50.9203 14.705 50.6054 15.1683 50.2091 15.5579C49.8129 15.9474 49.3431 16.2556 48.8268 16.465C48.3105 16.6743 47.7578 16.7804 47.2 16.7777ZM47.2 9.57971C46.6045 9.58624 46.0242 9.76749 45.5321 10.1005C45.04 10.4334 44.6581 10.9033 44.4344 11.4511C44.2107 11.9989 44.1553 12.6 44.2751 13.179C44.3948 13.758 44.6843 14.2889 45.1073 14.705C45.5303 15.1211 46.0677 15.4038 46.6522 15.5175C47.2366 15.6312 47.8421 15.5708 48.3921 15.344C48.9421 15.1173 49.4121 14.7343 49.7433 14.2431C50.0745 13.7519 50.2521 13.1744 50.2534 12.5833C50.2481 11.7838 49.9238 11.0187 49.3516 10.4558C48.7793 9.89289 48.0058 9.57795 47.2 9.57971ZM32.5734 58.9869C32.4935 58.9886 32.414 58.9743 32.3397 58.9452C32.2653 58.9161 32.1976 58.8727 32.1405 58.8173C32.0833 58.7618 32.038 58.6953 32.007 58.6222C31.976 58.549 31.9599 58.4705 31.96 58.3912C31.9598 58.3112 31.9756 58.2322 32.0064 58.1583C32.0371 58.0844 32.0823 58.0171 32.1393 57.9606C32.1963 57.904 32.2639 57.8593 32.3384 57.8288C32.4129 57.7983 32.4928 57.7824 32.5734 57.7826C32.7334 57.787 32.8855 57.8532 32.9974 57.9667C33.1093 58.0803 33.1724 58.2323 33.1733 58.3912C33.1716 58.5486 33.1079 58.6992 32.9958 58.8105C32.8836 58.9218 32.732 58.9851 32.5734 58.9869ZM39.8801 58.9869C39.7194 58.9879 39.5647 58.9259 39.4499 58.8144C39.335 58.7029 39.2691 58.5506 39.2666 58.3912C39.2666 58.2298 39.3313 58.075 39.4463 57.9609C39.5613 57.8468 39.7174 57.7826 39.8801 57.7826C40.0427 57.7826 40.1986 57.8468 40.3136 57.9609C40.4287 58.075 40.4933 58.2298 40.4933 58.3912C40.4909 58.5506 40.4251 58.7029 40.3102 58.8144C40.1954 58.9259 40.0407 58.9879 39.8801 58.9869ZM47.2 58.9869C47.0393 58.9879 46.8847 58.9259 46.7699 58.8144C46.655 58.7029 46.5892 58.5506 46.5868 58.3912C46.5868 58.2298 46.6513 58.075 46.7663 57.9609C46.8813 57.8468 47.0374 57.7826 47.2 57.7826C47.3627 57.7826 47.5186 57.8468 47.6336 57.9609C47.7486 58.075 47.8133 58.2298 47.8133 58.3912C47.8109 58.5506 47.7451 58.7029 47.6302 58.8144C47.5153 58.9259 47.3607 58.9879 47.2 58.9869ZM47.2 44.6039C47.0379 44.6022 46.8829 44.5374 46.7682 44.4236C46.6536 44.3099 46.5885 44.1562 46.5868 43.9953C46.5868 43.8339 46.6513 43.6791 46.7663 43.565C46.8813 43.4509 47.0374 43.3867 47.2 43.3867C47.3627 43.3867 47.5186 43.4509 47.6336 43.565C47.7486 43.6791 47.8133 43.8339 47.8133 43.9953C47.8116 44.1562 47.7465 44.3099 47.6318 44.4236C47.5172 44.5374 47.3622 44.6022 47.2 44.6039ZM47.2 51.7886C47.082 51.786 46.9673 51.749 46.8704 51.682C46.7735 51.615 46.6986 51.5213 46.6553 51.4123C46.6119 51.3033 46.6018 51.1838 46.6265 51.0692C46.6511 50.9546 46.7094 50.8498 46.7938 50.7678C46.8782 50.6858 46.9851 50.6305 47.1011 50.6085C47.2171 50.5866 47.3371 50.5993 47.446 50.6447C47.5548 50.6901 47.6477 50.7665 47.7131 50.8641C47.7784 50.9617 47.8133 51.076 47.8133 51.1932C47.8109 51.3527 47.7451 51.5049 47.6302 51.6164C47.5153 51.7279 47.3607 51.7897 47.2 51.7886ZM47.2 37.4059C47.0379 37.4042 46.8829 37.3395 46.7682 37.2257C46.6536 37.1119 46.5885 36.9582 46.5868 36.7973C46.5868 36.6359 46.6513 36.4809 46.7663 36.3667C46.8813 36.2526 47.0374 36.1887 47.2 36.1887C47.3627 36.1887 47.5186 36.2526 47.6336 36.3667C47.7486 36.4809 47.8133 36.6359 47.8133 36.7973C47.8116 36.9582 47.7465 37.1119 47.6318 37.2257C47.5172 37.3395 47.3622 37.4042 47.2 37.4059Z" fill="black"/>
</svg>
