<svg width="39" height="45" viewBox="0 0 39 45" fill="none" xmlns="http://www.w3.org/2000/svg">
<path fill-rule="evenodd" clip-rule="evenodd" d="M14.0963 3.54762V0.714286C14.0963 0.297619 13.7986 0 13.382 0C12.9653 0 12.6677 0.297619 12.6677 0.714286V3.54762C11.001 3.90476 9.6915 5.39286 9.6915 7.17857C9.6915 8.96429 11.001 10.4524 12.6677 10.8095V21.1335C12.6677 21.5502 12.9653 21.8478 13.382 21.8478C13.7986 21.8478 14.0963 21.5502 14.0963 21.1335L14.0963 10.8095C15.7629 10.4524 17.0725 8.96429 17.0725 7.17857C17.0725 5.39286 15.8225 3.90476 14.0963 3.54762ZM13.382 9.44048C12.132 9.44048 11.1201 8.42857 11.1201 7.17857C11.1201 5.92857 12.132 4.91667 13.382 4.91667C14.632 4.91667 15.6439 5.92857 15.6439 7.17857C15.6439 8.42857 14.632 9.44048 13.382 9.44048ZM2.97814 18.3003L2.97814 21.1336C2.97814 21.5503 3.27576 21.8479 3.69243 21.8479C4.1091 21.8479 4.40672 21.5503 4.40672 21.1336L4.40672 18.3003C6.07338 17.9431 7.38291 16.455 7.38291 14.6693C7.38291 12.8836 6.07338 11.3955 4.40672 11.0384L4.40672 0.714359C4.40672 0.297692 4.1091 9.50812e-05 3.69243 9.50448e-05C3.27576 9.50084e-05 2.97814 0.297692 2.97814 0.714359L2.97814 11.0384C1.31148 11.3955 0.00195312 12.8836 0.00195312 14.6693C0.00195312 16.455 1.25195 17.9431 2.97814 18.3003ZM3.69243 12.4074C4.94243 12.4074 5.95433 13.4193 5.95433 14.6693C5.95433 15.9193 4.94243 16.9312 3.69243 16.9312C2.44243 16.9312 1.43053 15.9193 1.43053 14.6693C1.43053 13.4193 2.44243 12.4074 3.69243 12.4074ZM31.5106 10.4699L34.4883 34.8968C36.9923 34.992 39.0003 37.0576 39.0001 39.5845C39.0001 42.2868 36.7038 44.463 33.9602 44.2642C31.6547 44.0972 29.7929 42.2335 29.6278 39.9279C29.4638 37.6363 30.957 35.659 33.0285 35.071L32.7352 32.6652L26.8609 40.1071C26.7551 40.2413 26.5936 40.3196 26.4227 40.3196H10.3267C9.97296 42.5591 8.0298 44.277 5.69248 44.277C2.99189 44.277 0.816825 41.9839 1.01232 39.2425C1.1766 36.9391 3.037 35.0745 5.34006 34.9054C7.83204 34.7223 9.95544 36.4987 10.3269 38.8497H10.7719L10.507 37.7154C9.91428 35.1783 7.65216 33.3837 5.04676 33.3837H2.93343C2.52006 33.3837 2.1864 33.0424 2.19884 32.6262C2.21094 32.224 2.5619 31.9139 2.9643 31.9139H5.04687C8.3526 31.9139 11.1865 34.1621 11.9385 37.3812L12.2816 38.8496H25.9812C25.9812 38.8496 32.4438 30.6752 32.4886 30.6399L30.0297 10.4699H28.3724C27.959 10.4699 27.6254 10.1285 27.6378 9.71232C27.6499 9.31014 28.0009 9 28.4033 9H32.8757C33.2891 9 33.6228 9.34135 33.6103 9.75755C33.5982 10.1597 33.2473 10.4699 32.8449 10.4699H31.5106ZM2.4702 39.5845C2.4702 41.3615 3.91576 42.807 5.69271 42.807C7.21662 42.807 8.49597 41.7433 8.82952 40.3195H5.69271C5.2868 40.3195 4.95778 39.9904 4.95778 39.5845C4.95778 39.1786 5.2868 38.8496 5.69271 38.8496H8.82952C8.49597 37.4259 7.21662 36.3621 5.69271 36.3621C3.91576 36.3621 2.4702 37.8077 2.4702 39.5845ZM31.0857 39.5845C31.0857 41.3615 32.5312 42.807 34.3081 42.807C36.0849 42.807 37.5305 41.3615 37.5305 39.5845C37.5305 37.93 36.2767 36.5633 34.6694 36.3829L35.0282 39.3261C35.0774 39.7289 34.7904 40.0952 34.3876 40.1444C34.3574 40.148 34.3274 40.15 34.2978 40.15C33.9316 40.15 33.6145 39.8766 33.5692 39.5038L33.2097 36.5551C31.9721 37.0051 31.0857 38.1932 31.0857 39.5845Z" fill="black"/>
</svg>
